<?xml version="1.0" encoding="utf-8"?>
<!-- Generator: Adobe Illustrator 23.0.1, SVG Export Plug-In . SVG Version: 6.00 Build 0)  -->
<svg version="1.1" id="f8de8b25-3d53-474b-a5b1-b2a4ad6ddbb8"
	 xmlns="http://www.w3.org/2000/svg" xmlns:xlink="http://www.w3.org/1999/xlink" x="0px" y="0px" viewBox="0 0 752.6 753.6"
	 style="enable-background:new 0 0 752.6 753.6;" xml:space="preserve">
<style type="text/css">
	.st0{fill:#F2F2F2;}
	.st1{fill:none;stroke:#3F3D56;stroke-width:2;stroke-miterlimit:10;}
	.st2{fill:#3F3D56;}
</style>
<title>Mobile app</title>
<path class="st0" d="M718.8,430.5L526.1,189.8c-8.7,8-19.5,13.4-31.2,15.7c-36.3,7.1-71.7-17.6-79.1-55.3
	c-5.2-26.6,4.9-52.6,24.1-68.1L374.3,0L0,319.9l344.5,430.5L718.8,430.5z"/>
<circle class="st1" cx="619.4" cy="56.9" r="14.8"/>
<circle class="st1" cx="718.8" cy="629.4" r="14.8"/>
<circle class="st1" cx="93" cy="644.2" r="14.8"/>
<circle class="st1" cx="170.7" cy="93.9" r="14.8"/>
<circle class="st0" cx="479.4" cy="139.7" r="54.3"/>
<path class="st2" d="M156.9,109.4h240.6c23.9,0,44.6,16.6,49.9,39.9L569,688.5c5,22.3-9,44.4-31.2,49.4c-2.3,0.5-4.7,0.8-7.1,1
	l-247.4,12.2c-27.4,1.3-51.5-17.8-56.4-44.8l-69-381.3l-5.1,1.5l-13.2-72.3l5.3-1.3l-19.3-106.4c-3.1-17.1,8.3-33.5,25.4-36.6
	C153,109.5,154.9,109.4,156.9,109.4z"/>
<g>
	<g>
		<defs>
			<path id="SVGID_1_" d="M545.1,684L428.4,153.5c-3.5-16.1-17.9-27.6-34.5-27.6h-11.8h-16.3l0,0H200.4h-26.6c-1.5,0-3,0.1-4.4,0.4
				c-13.5,2.4-22.5,15.2-20,28.6L249,703.2c2.6,14.1,15.4,24,29.8,23.1l246.6-16c1.1-0.1,2.2-0.2,3.2-0.5
				C540.2,707.3,547.7,695.8,545.1,684z"/>
		</defs>
		<clipPath id="SVGID_2_">
			<use xlink:href="#SVGID_1_"  style="overflow:visible;"/>
		</clipPath>
		<g transform="matrix(1 0 0 1 7.629395e-06 0)" style="clip-path:url(#SVGID_2_);">
			
				<image style="overflow:visible;" width="317" height="563" xlink:href="../../../Pictures/hamropalika screenshot/mobile - Copy.PNG"  transform="matrix(1.3581 -2.370591e-02 2.291730e-02 1.3129 125.6596 55.6896)">
			</image>
		</g>
	</g>
</g>
</svg>
