<svg xmlns="http://www.w3.org/2000/svg" width="470.436" height="473.776" viewBox="0 0 470.436 473.776">
  <path id="orange-bg-svg-path" d="M94.292.044c-5.02-.143-10.164,0-14.872,1.445C66.609,5.425,60.536,18.3,62.511,29.433s10.1,20.826,18.522,29.689S98.589,76.747,103.21,87.341c2.3,5.288,3.382,11.21,1.04,16.492-3.612,8.14-14.5,12.686-24.962,13.633s-20.957-.9-31.451-1.513c-4.4-.255-8.931-.286-13.079.9-4.553,1.3-8.345,3.942-11.833,6.7C9.318,134.38-1.575,149.147.188,164.661c1.993,17.581,19.767,31.476,39.236,38.931,6.446,2.491,13.265,4.472,18.939,8,14.947,9.3,18.3,26.737,16.815,42.126s-6.558,30.8-3.737,46.049c3.32,17.743,18.011,33.774,37.829,41.26,17.656,6.67,39.753,6.228,55.429-3.182,7.642-4.6,13.421-10.98,18.447-17.582A141.833,141.833,0,0,0,201.487,288.5c2.186-5.287,4.241-10.974,9.342-14.648,3.114-2.261,7.15-3.525,11.142-4.509,12.032-2.965,24.706-3.774,36.851-6.415s24.364-7.579,30.965-16.361c9.342-12.456,4.982-28.412,5.026-43.06.075-33.419,24.357-63.332,33.319-95.91,2.927-10.644,4.017-22.421-2.522-31.918-4.441-6.446-11.933-11.1-19.8-14.692-17.32-7.9-37.006-11.422-56.369-14.847-26.911-4.758-59.589-5.375-80.446-20.77C148.973,10.588,121.589.044,94.292.044Z" transform="matrix(0.809, 0.588, -0.588, 0.809, 203.103, 0)" fill="#f90" opacity="0.66"/>
</svg>
