<svg xmlns="http://www.w3.org/2000/svg" width="1058.45" height="523.676" viewBox="0 0 1058.45 523.676">
  <g id="Group_211" data-name="Group 211" transform="translate(-62.253 -99.073)">
    <circle id="circle-light-outline-sm" cx="8.678" cy="8.678" r="8.678" transform="translate(581.5 476.685)" fill="none" stroke="#f2f2f2" stroke-miterlimit="10" stroke-width="2"/>
    <circle id="fill-light-circle" cx="12.838" cy="12.838" r="12.838" transform="translate(583.253 143.073)" fill="#f2f2f2"/>
    <circle id="fill-blur-circle" cx="12.838" cy="12.838" r="12.838" transform="translate(406.253 597.073)" fill="#6c63ff"/>
    <circle id="fill-light-circle-sm" cx="4.838" cy="4.838" r="4.838" transform="translate(62.253 99.073)" fill="#f2f2f2"/>
    <circle id="circle-outline" cx="6.678" cy="6.678" r="6.678" transform="translate(978.5 550.685)" fill="none" stroke="#9a9a9a" stroke-miterlimit="10" stroke-width="2"/>
    <circle id="circle-orange-outline-sm" cx="4.178" cy="4.178" r="4.178" transform="translate(574.5 168.685)" fill="none" stroke="#f90" stroke-miterlimit="10" stroke-width="2"/>
    <g id="Polygon-light-outline-sm" transform="translate(296.439 498.797) rotate(45)" fill="none">
      <path d="M11.5,0,23,20H0Z" stroke="none"/>
      <path d="M 11.5 4.012261390686035 L 3.457050323486328 18 L 19.54294967651367 18 L 11.5 4.012261390686035 M 11.5 0 L 23 20 L 0 20 L 11.5 0 Z" stroke="none" fill="#f2f2f2"/>
    </g>
    <circle id="circle-orange-outline-sm-2" data-name="circle-orange-outline-sm" cx="4.178" cy="4.178" r="4.178" transform="translate(734.5 292.685)" fill="none" stroke="#e71731" stroke-miterlimit="10" stroke-width="2"/>
    <g id="Polygon-blue-outline" transform="translate(1104.439 250.797) rotate(45)" fill="none">
      <path d="M11.5,0,23,20H0Z" stroke="none"/>
      <path d="M 11.5 4.012261390686035 L 3.457050323486328 18 L 19.54294967651367 18 L 11.5 4.012261390686035 M 11.5 0 L 23 20 L 0 20 L 11.5 0 Z" stroke="none" fill="#6c63ff"/>
    </g>
  </g>
</svg>
